<svg width="32" height="32" viewBox="0 0 32 32" xmlns="http://www.w3.org/2000/svg">
  <defs>
    <linearGradient id="store-gradient" x1="0%" y1="0%" x2="100%" y2="100%">
      <stop offset="0%" style="stop-color:#6366F1;stop-opacity:1" />
      <stop offset="100%" style="stop-color:#4F46E5;stop-opacity:1" />
    </linearGradient>
  </defs>
  <circle cx="16" cy="16" r="14" fill="url(#store-gradient)" opacity="0.1"/>
  <path d="M4 14 L4 26 L8 26 L8 18 L24 18 L24 26 L28 26 L28 14 Z" fill="url(#store-gradient)"/>
  <rect x="10" y="20" width="4" height="6" rx="1" fill="white" opacity="0.3"/>
  <rect x="14" y="20" width="4" height="6" rx="1" fill="white" opacity="0.3"/>
  <rect x="18" y="20" width="4" height="6" rx="1" fill="white" opacity="0.3"/>
  <path d="M4 14 L4 10 Q4 6 8 6 L24 6 Q28 6 28 10 L28 14" stroke="url(#store-gradient)" stroke-width="2.5" fill="none" stroke-linecap="round"/>
  <rect x="12" y="8" width="8" height="4" rx="1" fill="url(#store-gradient)"/>
</svg>