<svg width="48" height="48" viewBox="0 0 48 48" xmlns="http://www.w3.org/2000/svg">
  <defs>
    <linearGradient id="whatsapp-gradient" x1="0%" y1="0%" x2="100%" y2="100%">
      <stop offset="0%" style="stop-color:#25D366;stop-opacity:1" />
      <stop offset="100%" style="stop-color:#128C7E;stop-opacity:1" />
    </linearGradient>
  </defs>
  <circle cx="24" cy="24" r="22" fill="url(#whatsapp-gradient)"/>
  <path d="M24 14 C18.5 14 14 18.5 14 24 C14 25.8 14.5 27.5 15.4 29 L14.5 33.5 L19 32.5 C20.4 33.3 22.1 33.8 24 33.8 C29.5 33.8 34 29.3 34 23.8 C34 18.3 29.5 13.8 24 13.8 Z" fill="white" opacity="0.15"/>
  <path d="M20.5 18 C19.8 18 18.8 18.2 18 19 C17.2 19.8 16.5 20.8 16.5 22.5 C16.5 24.2 17.3 25.8 18.8 27.5 C20.3 29.2 22.5 31 25.5 31.2 C28.5 31.4 29.5 30.8 30.2 29.8 C30.9 28.8 31 27.5 30.8 26.8 C30.6 26.1 30.2 25.8 29.5 25.5 C28.8 25.2 26.8 24.2 26.4 24 C26 23.8 25.5 24 25.2 24.5 C24.9 25 24.2 25.8 24 26 C23.8 26.2 23.5 26.2 23 26 C21.5 25.2 20.2 24.2 19.2 22.8 C18.8 22.2 19 21.8 19.2 21.5 C19.4 21.2 19.8 20.8 20 20.5 C20.2 20.2 20.3 20 20.4 19.5 C20.5 19 20.3 18.8 20.2 18.5 C20.1 18.2 19.5 18 19.5 18 C19.5 18 18.5 18 20.5 18 Z" fill="white"/>
  <circle cx="24" cy="24" r="18" stroke="white" stroke-width="0.5" fill="none" opacity="0.2"/>
</svg>